<?xml version="1.0" standalone="no"?>
<!DOCTYPE svg PUBLIC "-//W3C//DTD SVG 20010904//EN"
 "http://www.w3.org/TR/2001/REC-SVG-20010904/DTD/svg10.dtd">
<svg version="1.0" xmlns="http://www.w3.org/2000/svg"
 width="670.000000pt" height="674.000000pt" viewBox="0 0 670.000000 674.000000"
 preserveAspectRatio="xMidYMid meet">

<g transform="translate(0.000000,674.000000) scale(0.100000,-0.100000)"
fill="#000000" stroke="none">
<path d="M2705 4792 l-700 -697 -5 200 -5 200 -360 0 -360 0 -3 -568 -2 -569
-332 -334 -332 -334 44 -45 44 -45 283 277 c328 321 769 763 1738 1738 379
382 693 695 698 695 4 0 622 -610 1373 -1356 l1366 -1356 44 43 c24 24 43 46
42 49 -6 12 -2819 2800 -2826 2800 -4 0 -322 -314 -707 -698z"/>
<path d="M4180 3065 l-595 -595 600 -600 600 -600 600 600 600 600 -595 595
c-327 327 -599 595 -605 595 -6 0 -278 -268 -605 -595z m247 -120 c29 -13 67
-35 85 -48 30 -22 46 -25 163 -30 290 -14 465 -81 637 -245 93 -89 161 -186
209 -299 21 -51 41 -84 52 -87 16 -4 18 -14 15 -78 l-3 -73 -549 -3 c-433 -2
-551 0 -558 10 -4 7 -8 36 -8 64 0 37 -6 59 -21 78 -27 35 -102 72 -162 81
-26 4 -49 10 -52 14 -2 4 3 71 11 148 14 140 15 142 66 234 29 51 48 94 42 96
-42 15 -89 52 -92 72 -3 20 -8 22 -35 17 -60 -12 -113 -67 -123 -127 -5 -28 5
-63 45 -165 62 -158 67 -182 51 -241 -26 -93 -112 -153 -217 -153 -41 0 -43 2
-43 29 0 28 1 29 65 33 51 3 70 9 91 28 69 65 69 111 4 275 -56 141 -63 200
-31 263 35 68 104 112 174 112 19 0 40 7 48 16 16 19 62 12 136 -21z"/>
<path d="M4326 2905 c-9 -24 47 -48 87 -37 l32 9 -45 21 c-54 26 -66 27 -74 7z"/>
<path d="M4374 2707 c-50 -91 -63 -124 -68 -174 l-7 -62 43 -12 c149 -40 514
-93 713 -103 257 -14 384 -16 389 -8 7 11 -59 115 -112 179 -92 109 -280 224
-423 257 -80 19 -263 36 -384 36 l-90 0 -61 -113z m436 43 c30 -6 90 -23 134
-37 l78 -25 25 -57 c14 -31 26 -72 27 -91 l1 -35 -285 0 -285 0 1 60 c0 69 15
126 45 174 l20 34 92 -6 c51 -3 117 -11 147 -17z"/>
<path d="M4576 2663 c-9 -26 -16 -60 -16 -75 0 -25 4 -29 23 -26 16 2 23 11
25 33 2 16 9 33 15 37 18 12 266 9 288 -2 12 -7 19 -21 19 -40 0 -28 2 -30 40
-30 45 0 45 0 28 47 -10 27 -22 37 -64 52 -71 27 -203 51 -279 51 l-63 0 -16
-47z"/>
<path d="M4660 2570 c0 -6 42 -10 105 -10 63 0 105 4 105 10 0 6 -42 10 -105
10 -63 0 -105 -4 -105 -10z"/>
<path d="M4290 2392 c0 -13 13 -21 48 -31 57 -15 134 -63 156 -97 l16 -24 490
0 c502 0 506 0 482 36 -4 7 -87 13 -237 17 -311 8 -592 41 -845 97 -109 24
-110 24 -110 2z"/>
<path d="M4530 2155 l0 -25 503 2 502 3 3 23 3 22 -505 0 -506 0 0 -25z"/>
</g>
</svg>
